<svg width="21" height="20" viewBox="0 0 21 20" fill="none" xmlns="http://www.w3.org/2000/svg">
<path d="M2.753 5.884L10.75 9.882L18.747 5.884C18.7174 5.37444 18.4941 4.89549 18.1228 4.54523C17.7516 4.19497 17.2604 3.99991 16.75 4H4.75C4.23958 3.99991 3.74845 4.19497 3.37718 4.54523C3.00591 4.89549 2.7826 5.37444 2.753 5.884Z" fill="#9CA3AF"/>
<path d="M18.75 8.118L10.75 12.118L2.75 8.118V14C2.75 14.5304 2.96071 15.0391 3.33579 15.4142C3.71086 15.7893 4.21957 16 4.75 16H16.75C17.2804 16 17.7891 15.7893 18.1642 15.4142C18.5393 15.0391 18.75 14.5304 18.75 14V8.118Z" fill="#9CA3AF"/>
</svg>
